<?xml version="1.0" encoding="UTF-8"?>
<svg width="450px" height="134px" viewBox="0 0 450 134" version="1.1" xmlns="http://www.w3.org/2000/svg" xmlns:xlink="http://www.w3.org/1999/xlink">
    <!-- Generator: Sketch 47.1 (45422) - http://www.bohemiancoding.com/sketch -->
    <title>headline</title>
    <desc>Created with Sketch.</desc>
    <defs></defs>
    <g id="Symbols" stroke="none" stroke-width="1" fill="none" fill-rule="evenodd">
        <g id="headline" fill="#000000">
            <path d="M48.7480005,56 L48.7480005,0 L35.1480005,0 L35.1480005,20.96 L13.6,20.96 L13.6,0 L6.21724894e-15,0 L6.21724894e-15,56 L13.6,56 L13.6,33.92 L35.1480005,33.92 L35.1480005,56 L48.7480005,56 Z M98.4704004,12.96 L98.4704004,0 L59.92,0 L59.92,56 L98.4704004,56 L98.4704004,43.04 L73.52,43.04 L73.52,34.24 L96.6343994,34.24 L96.6343994,21.28 L73.52,21.28 L73.52,12.96 L98.4704004,12.96 Z M137.4936,56 L137.4936,38.1271997 L156.907999,0 L141.645599,0 L130.6936,21.9688 L119.7416,0 L104.4792,0 L123.8928,38.1271997 L123.8928,56 L137.4936,56 Z M171.4584,69.7704004 L181.8712,41.6 L167.1048,41.6 L160.48,69.7704004 L171.4584,69.7704004 Z M233.5336,12.96 L233.5336,0 L189.44,0 L189.44,12.96 L204.663199,12.96 L204.663199,56 L218.263199,56 L218.263199,12.96 L233.5336,12.96 Z M289.868,56 L289.868,0 L276.268,0 L276.268,20.96 L254.72,20.96 L254.72,0 L241.12,0 L241.12,56 L254.72,56 L254.72,33.92 L276.268,33.92 L276.268,56 L289.868,56 Z M339.5904,12.96 L339.5904,0 L301.04,0 L301.04,56 L339.5904,56 L339.5904,43.04 L314.64,43.04 L314.64,34.24 L337.754399,34.24 L337.754399,21.28 L314.64,21.28 L314.64,12.96 L339.5904,12.96 Z M391.92,35.8992004 L386.012799,35.8992004 L394.112799,56 L379.490399,56 L371.323199,35.8992004 L362.8,35.8992004 L362.8,56 L349.2,56 L349.2,0 L391.92,0 L391.92,35.8992004 Z M362.799999,12.96 L362.799999,24.4 L379.415999,24.4 L379.415999,12.96 L362.799999,12.96 Z M441.4304,12.96 L441.4304,0 L402.88,0 L402.88,56 L441.4304,56 L441.4304,43.04 L416.48,43.04 L416.48,34.24 L439.594399,34.24 L439.594399,21.28 L416.48,21.28 L416.48,12.96 L441.4304,12.96 Z M39.9592004,89.96 L39.9592004,77 L0.0776000977,77 L0.0776000977,110.912 L26.3592004,110.912 L26.3592004,120.04 L0.0776000977,120.04 L0.0776000977,133 L39.9592004,133 L39.9592004,97.9519995 L13.6776001,97.9519995 L13.6776001,89.96 L39.9592004,89.96 Z M91.6135999,89.96 L91.6135999,77 L47.52,77 L47.52,89.96 L62.7431995,89.96 L62.7431995,133 L76.3431995,133 L76.3431995,89.96 L91.6135999,89.96 Z M141.92,112.8992 L136.012799,112.8992 L144.112799,133 L129.490399,133 L121.323199,112.8992 L112.8,112.8992 L112.8,133 L99.2,133 L99.2,77 L141.92,77 L141.92,112.8992 Z M112.799999,89.96 L112.799999,101.4 L129.415999,101.4 L129.415999,89.96 L112.799999,89.96 Z M199.468,133 L185.868,133 L185.868,116.2608 L166.48,116.2608 L166.48,133 L152.88,133 L152.88,77 L199.468,77 L199.468,133 Z M166.48,89.96 L166.48,103.3008 L185.868,103.3008 L185.868,89.96 L166.48,89.96 Z M246.2648,111.6192 L225.6528,76.9992004 L210.24,76.9992004 L210.24,132.9992 L223.84,132.9992 L223.84,109.549601 L222.828,98.3552014 L243.4512,132.999202 L258.8552,133.000001 L258.8552,77.0000012 L245.2552,77.0000012 L245.2552,100.449601 L246.2648,111.6192 Z M293.4064,102.283199 L293.4064,113.403199 L310.116801,113.403199 C307.5664,118.186399 302.704,121.079999 296.56,121.079999 C287.604,121.079999 281.04,114.359199 281.04,104.999999 C281.04,95.6415991 287.604,88.9199988 296.56,88.9199988 C303.2008,88.9199988 308.4464,92.6159985 310.596,98.3423987 L324.8776,98.3391992 C322.125601,85.2447998 310.794401,75.96 296.5592,75.96 C280.0112,75.96 267.2792,88.5080005 267.2792,105 C267.2792,121.4928 280.0112,134.04 296.5592,134.04 C313.107201,134.04 325.8392,121.4928 325.8392,105 C325.8392,104.1912 325.6992,102.8336 325.5192,102.283199 L293.4064,102.283199 Z M372.3904,89.96 L372.3904,77 L333.84,77 L333.84,133 L372.3904,133 L372.3904,120.04 L347.44,120.04 L347.44,111.24 L370.554399,111.24 L370.554399,98.28 L347.44,98.28 L347.44,89.96 L372.3904,89.96 Z M424.72,112.8992 L418.812799,112.8992 L426.912799,133 L412.290399,133 L404.123199,112.8992 L395.6,112.8992 L395.6,133 L382,133 L382,77 L424.72,77 L424.72,112.8992 Z M395.599999,89.96 L395.599999,101.4 L412.215999,101.4 L412.215999,89.96 L395.599999,89.96 Z" id="HEY,THERE-STRANGER"></path>
        </g>
    </g>
</svg>