<?xml version="1.0" encoding="utf-8"?>
<!-- Generator: Adobe Illustrator 21.0.2, SVG Export Plug-In . SVG Version: 6.00 Build 0)  -->
<svg version="1.1" id="Layer_1" xmlns="http://www.w3.org/2000/svg" xmlns:xlink="http://www.w3.org/1999/xlink" x="0px" y="0px"
	 viewBox="0 0 486.1 69.6" style="enable-background:new 0 0 486.1 69.6;" xml:space="preserve">
<style type="text/css">
	.st0{fill:#FFFFFF;}
</style>
<title>logo</title>
<path class="st0" d="M31.5,56.7v0.4l-3.8-0.7h-0.5c0.2,0.2,0.3,0.4,0.3,0.6h-1.3c-0.8-0.1-1.6-0.2-2.3-0.3h-0.1
	c-5.1,0-10.5-2.4-16.3-7.3C2.9,44.7,0.6,40,0.6,35.4l0.6-0.5l0,0H0.6l0.5-0.4l0.2-0.4v-0.5l-0.6-2.6v-0.3L0,31.3v-2.1l0.6-0.5v-0.5
	L0,27.7l0.6-0.6h0.2v-0.3l-0.2-0.2l0.2-0.8H0.6c0.3-1.7,0.8-3.4,1.4-5l-0.7-0.5c1.1,0,2-1.6,2.7-4.7c3.6-4.5,7.4-7.5,11.3-8.9
	c0.5-0.2,0.9-0.4,1.4-0.6L17,6.2c0.4-0.1,0.7-0.2,1.1-0.2V5.5h0.6l0.4,0.3l1-0.1V5.5L19.5,5l1-0.1V4.7l4.7-0.5h0.1L26.9,4
	c1.6,0,3.2,0.1,4.7,0.2h0.4H32c0.4,0,0.9,0.1,1.3,0.2V4.2c1.8,0.3,3.6,0.8,5.3,1.4c9.5,2.9,15.6,9.9,18.3,20.9l-0.5,0.4v0.3
	c0,0.1,0,0.2,0,0.3L57,29c0,12.6-5.4,21.3-16.1,26.1l-6.7,2.1l-1.9-0.4l-0.4,0.1L31.5,56.7z M18.9,24.6c-0.6,1.7-0.9,3.6-0.9,5.4
	l0.6,2.1l-0.6,0.5l0.6,0.6v0.5l-0.6,0.5v0.5l0.6,0.6l-0.6,1.5l0.6-0.5h0.7c0,3.2,2.9,5.6,8.7,7.3l0.7-0.5v0.5
	c0.8-0.2,1.5-0.4,2.2-0.6c1.9-0.9,3.6-2.1,5-3.7l3-8.9l-0.6-0.5v-0.5l0.6-0.5l-1.7-5.8l-1.3-1.5L35.3,21v-0.5h-0.7l-4.1-2.1L29.9,19
	h-0.7l-0.7-0.5h-0.7C24.4,18.4,21.4,20.5,18.9,24.6z M19.6,54.1c0-2.2,0.6-3.3,1.7-3.3l0.1,0.3c-0.1,0-0.3,0.2-0.6,0.7l0.1,1
	c-0.6,0.3-1,0.9-0.9,1.6l-0.3,0.1C19.7,54.4,19.6,54.2,19.6,54.1L19.6,54.1z M24.8,60.1c0.2,0,0.3-0.1,0.3-0.3v-0.3h-0.3
	c-0.2,0-0.3,0.1-0.3,0.3C24.5,60,24.6,60.1,24.8,60.1C24.8,60.1,24.8,60.1,24.8,60.1L24.8,60.1z M24.8,46.2h0.6V46
	c0-0.2-0.1-0.3-0.3-0.3s-0.3,0.1-0.3,0.3L24.8,46.2z M27.4,23.6l0.3,0.1h0.5c0.3,0,0.5-0.5,0.6-1.6h-0.1
	C27.8,22.5,27.4,23,27.4,23.6L27.4,23.6z M46.9,19.9c0.2,0.1,0.4,0.1,0.6,0.1c-0.2,0.5-0.3,0.9-0.5,1.4c0.2,0.7,0.8,1,1.8,1l1.4,0.9
	h-0.6c-0.9-0.3-1.8-0.5-2.8-0.6c-0.3-0.6-0.5-1.2-0.5-1.9v-0.6C46.4,20.1,46.6,20,46.9,19.9L46.9,19.9z M46.7,54.7
	c0.1-0.1,0.1-0.3,0.1-0.4H47c0.2,0,0.3,0.1,0.3,0.3v1.1h-0.1C47.1,55.3,47,54.9,46.7,54.7L46.7,54.7z M46.8,56.8v-0.5h0.5v0.4
	L46.8,56.8z M47.8,47.3h0.5c0-0.4,0.1-0.8,0.3-1.1l-0.5-0.3h-0.3c-0.1,0-0.3,0.1-0.5,0.4v0.1C47.4,47,47.5,47.3,47.8,47.3L47.8,47.3
	z M47.4,49.1l0.5,0.3h0.1c0.4-0.2,0.6-0.6,0.6-1v-0.1c0-0.1-0.2-0.2-0.5-0.4C47.9,47.9,47.7,48.3,47.4,49.1L47.4,49.1z M48.1,65.8
	h0.1c0.2,0,0.3-0.1,0.3-0.3v-0.2L48.4,65c-0.2,0.1-0.4,0.1-0.6,0.1v0.3C47.8,65.6,47.9,65.7,48.1,65.8
	C48.1,65.7,48.1,65.7,48.1,65.8L48.1,65.8z M48.2,55.7c0.2-0.6,0.7-1.2,1.2-1.6c0.1,0,0.2,0.1,0.5,0.4l-0.1,1v2
	c0,0.2-0.1,0.3-0.3,0.3C49.1,56.5,48.7,55.8,48.2,55.7L48.2,55.7z M48.8,53c0.2-0.6,0.4-0.9,0.6-0.9h0.1l0.1,0.7v0.9
	c0,0.2-0.1,0.3-0.3,0.3h-0.1C49.2,53.6,49,53.3,48.8,53L48.8,53z M49.3,40.1h0.5v-0.4h-0.5V40.1z M49.6,39.2h0.6v-0.1
	c0-0.2-0.1-0.3-0.3-0.3s-0.3,0.1-0.3,0.3L49.6,39.2z M53.6,22.7c0.1,0.6,0.2,0.9,0.5,0.9h0.1c0.2,0,0.3-0.1,0.3-0.3v-0.1
	c0-0.5-0.2-0.8-0.5-0.9C53.9,22.3,53.8,22.4,53.6,22.7L53.6,22.7z M55,26.8h0.6c0.2,0,0.3,0.1,0.5,0.4c-0.3,0.5-0.7,0.9-1.1,1.3
	c0.7,0.5,1.5,0.9,2.3,1.1V30c-0.4,0-0.8,0.1-1.2,0.1c-1.3,0-2-0.6-2-1.7c-0.1,0-0.1-0.2-0.1-0.6C53.9,27.1,54.3,26.8,55,26.8
	L55,26.8z M57,24.6h0.3c0.9,0.3,1.4,0.5,1.4,0.7v0.1l-0.1,0.3c-1.2-0.5-1.8-0.8-1.8-1L57,24.6z M57.7,40.6c0.2,0,0.4,0.1,0.6,0.3
	c0.4-0.1,0.6-0.3,0.6-0.4v-0.3c0-0.2-0.1-0.3-0.3-0.3h-0.1l-0.8,0.1L57.7,40.6z M58.3,35.4c0.4-0.1,0.6-0.3,0.6-0.4v-0.1
	c0-0.2-0.1-0.3-0.3-0.3h-0.5c-0.2,0-0.3,0.1-0.3,0.3L58.3,35.4z M58,41.4h0.5v-0.3H58V41.4z M59,29.7c0.1,0.1,0.3,0.1,0.5,0.1v0.3
	h-0.5c-0.2,0-0.3-0.1-0.3-0.3L59,29.7z M60.7,25.7c0,0.1,0.5,0.4,1.4,0.7l0.1,0.3c0,0.2-0.6,0.4-1.7,0.6h-0.6
	c-0.2,0-0.3-0.1-0.5-0.4v-0.7C59.5,25.8,59.9,25.6,60.7,25.7L60.7,25.7z M63,26.6h0.1v0.3h-0.5C62.7,26.7,62.8,26.5,63,26.6
	C62.9,26.5,62.9,26.5,63,26.6L63,26.6z M64.7,26.3c0.2,0,0.3,0.1,0.3,0.3v0.3h-0.6v-0.3C64.3,26.4,64.4,26.3,64.7,26.3
	C64.6,26.2,64.6,26.2,64.7,26.3L64.7,26.3z M65,23.9h0.9l0.8,0.1c0,0.3-0.6,0.6-1.7,0.7l-0.3-0.4v-0.1C64.6,24,64.7,23.8,65,23.9
	C64.9,23.8,64.9,23.8,65,23.9L65,23.9z M70.4,49.6c0,0.7,0.2,1,0.5,1.1h0.3c0.3,0,0.6-0.7,0.9-2.1l-0.1-0.7h-0.6
	C70.7,48.2,70.4,48.8,70.4,49.6L70.4,49.6z M72.2,25.9l1.1,1l-1.1,1C72,27.3,71.5,27,71,27h-0.5v-0.1l0.1-0.3l0.3,0.1h0.3L72.2,25.9
	z M77.7,30.9h0.1c0.1,0.3,0.2,0.6,0.5,0.9v0.6h-0.1c-0.3,0-0.5-0.4-0.5-1.3V30.9z M95.2,47.8c0.6,0.1,1.1,0.1,1.7,0.1v0.3l-0.1,0.3
	l-0.3-0.1l-1.4,0.1L94.8,48v-0.1C94.9,47.8,95.1,47.8,95.2,47.8L95.2,47.8z"/>
<path class="st0" d="M104.5,43.7c-1.2,2.5-1.2,2.3-0.2-0.5c-1,5.2-6.9,9.3-17.9,12.2v-0.6h-0.6l-0.6,0.6l-15.3,0.3l-3.8-1.1
	l-1.3,1.2H65l1-0.5l-0.6,0.6H64l2.1-0.5v0.5l-1.9-0.5h-0.6l0.6-1.7v-0.6l-0.6-0.6l0.5-5.1l-0.7-4l1.5-2.3h-1.1l0.7,0.5
	c0-0.5-0.2-0.9-0.6-1.2v-1.7l0.6-2.3l-0.7-2.2l-0.3-16.4l0.6-0.6l-0.6-0.5v-1.2l0.5-3.4v-0.5L63.1,11l0.5-2.3V7h0.7L65,6.4V5.9
	l2,0.5l3.8-0.6h0.7l1.3,1.1l1.3-1.2l3.2,0.5l1.3-0.6h7.5h1.9l0.7,0.5V5.6l6.7,2.6v0.6h-1.9v0.6h1.9l0.6-0.6
	c8.3,4.6,11.6,14,9.9,28.1C106.1,39.2,105.6,41.6,104.5,43.7z M85.7,41.3l1.5-2.3l1.5-0.6l1.6-2.4l-0.4-11.6c-0.1-2.4-1.7-4.2-5-5.4
	l-0.3,0.6H84l-2.5-0.5c-2,0.5-3,1.3-3.1,2.3V22l0.6,0.5L79,39.9c0,0.8,2.2,0.8,6.6,0.2v0.6L85,41.3L85.7,41.3z"/>
<path class="st0" d="M155.7,43.7c-1.2,2.5-1.2,2.3-0.2-0.5c-1,5.2-6.9,9.3-17.9,12.2v-0.6H137l-0.6,0.6l-15.3,0.3l-3.8-1.1l-1.3,1.2
	h0.2l1-0.5l-0.6,0.6h-1.3l2.1-0.5v0.5l-1.9-0.5h-0.6l0.6-1.7v-0.6l-0.6-0.6l0.5-5.1l-0.7-4l1.5-2.3h-1.2l0.7,0.5
	c0-0.5-0.2-0.9-0.6-1.2v-1.7l0.6-2.3l-0.7-2.2l-0.3-16.4l0.6-0.6l-0.6-0.5v-1.2l0.5-3.4v-0.5l-0.6-0.6l0.5-2.3V7h0.7l0.6-0.6V5.9
	l2,0.5l3.8-0.6h0.7l1.3,1.1l1.3-1.2l3.2,0.5l1.3-0.6h7.5h1.9l0.7,0.5V5.6l6.7,2.6v0.6h-1.9v0.6h1.9l0.6-0.6
	c8.3,4.6,11.6,14,9.9,28.1C157.3,39.2,156.9,41.6,155.7,43.7z M136.9,41.3l1.5-2.3l1.5-0.6l1.6-2.4l-0.4-11.6
	c-0.1-2.4-1.7-4.2-5-5.4l-0.3,0.6h-0.6l-2.5-0.5c-2,0.5-3,1.3-3.1,2.3V22l0.6,0.5l0.1,17.3c0,0.8,2.2,0.8,6.6,0.2v0.6l-0.6,0.6
	L136.9,41.3z"/>
<path class="st0" d="M184.5,4.6h4.4c7.5,0.3,11.3,0.9,11.3,1.7l1.1-0.3h1.1l2.2,2.1c1.3,0.6,2.4,1.4,3.4,2.4l-4.8,7.6l-2.2,2.1
	l-5.4-2.1l-3.3-1l-1.1,1v-1c-8.8,2.4-13.1,6.6-13.1,12.5v2.1c0,6.4,5.2,10.2,15.5,11.5l-0.1-5.8c-2.9,1-4.4,0.8-4.4-0.6v-4.1
	l0.3-5.2l1.1,1l1.1-1h7.4l1.1,1l1.1-1h3.8c1.1,0,1.7,4.5,1.7,13.5l-0.3,5h0.3l-0.3,1.1v3.1l0.3,1v1c-5.5,2.9-9.8,4.3-13.1,4.3h-7.7
	c-6-0.5-12-3.6-17.9-9.3c-0.4-3.5-1.4-5.2-3.3-5.2v-1l-1.1-12.5c1.9-10.6,6.2-17.7,13-21.2l1.1-1L184.5,4.6z"/>
<path class="st0" d="M246.6,56.7v0.4l-3.8-0.7h-0.5c0.2,0.2,0.3,0.4,0.3,0.6h-1.3c-0.8-0.1-1.6-0.2-2.3-0.3h-0.1
	c-5.1,0-10.5-2.4-16.3-7.3c-4.5-4.8-6.8-9.5-6.8-14.1l0.6-0.5l0,0h-0.6l0.5-0.4l0.2-0.4v-0.5l-0.6-2.6v-0.3l-0.6,0.5v-2.1l0.6-0.5
	v-0.5l-0.6-0.5l0.6-0.6h0.2v-0.3l-0.2-0.2l0.2-0.8h-0.2c0.3-1.7,0.8-3.4,1.4-5l-0.7-0.5c1.1,0,2-1.6,2.7-4.7
	c3.6-4.5,7.4-7.5,11.3-8.9c0.5-0.2,0.9-0.4,1.4-0.6l0.2,0.2c0.4-0.1,0.7-0.2,1.1-0.2V5.5h0.6l0.4,0.3l1-0.1V5.5L234.7,5l1-0.1V4.7
	l4.7-0.5h0.1L242,4c1.6,0,3.2,0.1,4.7,0.2h0.4h0.1c0.4,0,0.9,0.1,1.3,0.2V4.2c1.8,0.3,3.6,0.8,5.3,1.4c9.6,2.9,15.7,9.9,18.3,20.8
	l-0.5,0.4v0.3c0,0.1,0,0.2,0,0.3l0.5,1.6c0,12.6-5.4,21.3-16.1,26.1l-6.7,2.1l-1.9-0.4l-0.4,0.1L246.6,56.7z M234.1,24.6
	c-0.6,1.7-0.9,3.6-0.9,5.4l0.6,2.1l-0.6,0.5l0.6,0.6v0.5l-0.6,0.5v0.5l0.6,0.6l-0.6,1.5l0.6-0.5h0.7c0,3.2,2.9,5.6,8.7,7.3l0.7-0.5
	v0.5c0.8-0.2,1.5-0.4,2.2-0.6c1.9-0.9,3.6-2.1,5-3.7l3-8.9l-0.6-0.5v-0.5l0.6-0.5l-1.7-5.8l-1.3-1.5l-0.6-0.6v-0.5h-0.7l-4.1-2.1
	L245,19h-0.7l-0.7-0.5H243C239.5,18.4,236.6,20.5,234.1,24.6z M234.7,54.1c0-2.2,0.6-3.3,1.7-3.3l0.1,0.3c-0.1,0-0.3,0.2-0.6,0.7
	l0.1,1c-0.6,0.3-1,0.9-0.9,1.6l-0.3,0.1C234.9,54.4,234.8,54.2,234.7,54.1L234.7,54.1z M239.9,60.1c0.2,0,0.3-0.1,0.3-0.3v-0.3h-0.3
	c-0.2,0-0.3,0.1-0.3,0.3C239.7,60,239.8,60.1,239.9,60.1C239.9,60.1,239.9,60.1,239.9,60.1L239.9,60.1z M239.9,46.2h0.6V46
	c0-0.2-0.1-0.3-0.3-0.3c-0.2,0-0.3,0.1-0.3,0.3L239.9,46.2z M242.5,23.6l0.3,0.1h0.5c0.3,0,0.5-0.5,0.6-1.6h-0.1
	C243,22.5,242.5,23,242.5,23.6L242.5,23.6z M262,19.9c0.2,0.1,0.4,0.1,0.6,0.1c-0.2,0.5-0.3,0.9-0.5,1.4c0.2,0.7,0.8,1,1.8,1
	l1.4,0.9h-0.6c-0.9-0.3-1.8-0.5-2.8-0.6c-0.3-0.6-0.5-1.2-0.5-1.9v-0.6C261.6,20.1,261.7,20,262,19.9L262,19.9z M261.9,54.7
	c0.1-0.1,0.1-0.3,0.2-0.4h0.1c0.2,0,0.3,0.1,0.3,0.3v1.1h-0.1C262.3,55.3,262.1,54.9,261.9,54.7L261.9,54.7z M262,56.8v-0.5h0.5v0.4
	L262,56.8z M262.9,47.3h0.5c0-0.4,0.1-0.8,0.3-1.1l-0.5-0.3h-0.3c-0.1,0-0.3,0.1-0.5,0.4v0.1C262.6,47,262.7,47.3,262.9,47.3z
	 M262.6,49.2l0.5,0.3h0.1c0.4-0.2,0.6-0.6,0.6-1v-0.1c0-0.1-0.2-0.2-0.5-0.4C263.1,47.9,262.8,48.3,262.6,49.2L262.6,49.2z
	 M263.2,65.8h0.2c0.2,0,0.3-0.1,0.3-0.3v-0.2l-0.2-0.3c-0.2,0.1-0.4,0.1-0.6,0.1v0.3C262.9,65.6,263.1,65.7,263.2,65.8
	C263.2,65.7,263.2,65.7,263.2,65.8L263.2,65.8z M263.4,55.7c0.2-0.6,0.7-1.2,1.2-1.6c0.1,0,0.2,0.1,0.5,0.4l-0.2,1v2
	c0,0.2-0.1,0.3-0.3,0.3C264.2,56.5,263.8,55.8,263.4,55.7L263.4,55.7z M264,53c0.2-0.6,0.4-0.9,0.6-0.9h0.1l0.2,0.7v0.9
	c0,0.2-0.1,0.3-0.3,0.3h-0.2C264.4,53.6,264.2,53.3,264,53L264,53z M264.5,40.1h0.5v-0.4h-0.5L264.5,40.1z M264.8,39.2h0.6v-0.1
	c0-0.2-0.1-0.3-0.3-0.3s-0.3,0.1-0.3,0.3L264.8,39.2z M268.8,22.7c0.1,0.6,0.2,0.9,0.5,0.9h0.1c0.2,0,0.3-0.1,0.3-0.3v-0.1
	c0-0.5-0.2-0.8-0.5-0.9C269.1,22.3,269,22.4,268.8,22.7L268.8,22.7z M270.2,26.8h0.6c0.2,0,0.3,0.1,0.5,0.4
	c-0.3,0.5-0.7,0.9-1.1,1.3c0.7,0.5,1.5,0.9,2.3,1.1V30c-0.4,0-0.8,0.1-1.2,0.1c-1.3,0-2-0.6-2-1.7c-0.1,0-0.1-0.2-0.1-0.6
	C269.1,27.1,269.5,26.8,270.2,26.8L270.2,26.8z M272.2,24.6h0.3c0.9,0.3,1.4,0.5,1.4,0.7v0l-0.2,0.3c-1.2-0.5-1.8-0.8-1.8-1
	L272.2,24.6z M272.9,40.7c0.2,0,0.4,0.1,0.6,0.3c0.4-0.1,0.6-0.3,0.6-0.4v-0.3c0-0.2-0.1-0.3-0.3-0.3h-0.2l-0.8,0.1L272.9,40.7z
	 M273.5,35.4c0.4-0.1,0.6-0.3,0.6-0.4v-0.1c0-0.2-0.1-0.3-0.3-0.3h-0.5c-0.2,0-0.3,0.1-0.3,0.3L273.5,35.4z M273.2,41.4h0.5v-0.3
	h-0.5V41.4z M274.2,29.7c0.1,0.1,0.3,0.1,0.5,0.1v0.3h-0.5c-0.2,0-0.3-0.1-0.3-0.3L274.2,29.7z M275.9,25.7c0,0.1,0.5,0.4,1.4,0.7
	l0.2,0.3c0,0.2-0.6,0.4-1.7,0.6h-0.6c-0.2,0-0.3-0.1-0.5-0.4v-0.7C274.7,25.8,275.1,25.6,275.9,25.7L275.9,25.7z M278.2,26.6h0.2
	v0.3h-0.5c0-0.1,0.1-0.3,0.2-0.3C278.1,26.5,278.1,26.5,278.2,26.6L278.2,26.6z M279.9,26.3c0.2,0,0.3,0.1,0.3,0.3v0.3h-0.6v-0.3
	c0-0.1,0-0.3,0.2-0.3C279.8,26.2,279.8,26.2,279.9,26.3L279.9,26.3z M280.2,23.9h0.9l0.8,0.1c0,0.3-0.6,0.6-1.7,0.7l-0.3-0.4v-0.1
	c0-0.1,0-0.3,0.2-0.3C280.1,23.8,280.1,23.8,280.2,23.9L280.2,23.9z M285.6,49.6c0,0.7,0.2,1,0.5,1.1h0.3c0.3,0,0.6-0.7,0.9-2.1
	l-0.2-0.7h-0.6C285.9,48.2,285.5,48.8,285.6,49.6L285.6,49.6z M287.4,25.9l1.1,1l-1.1,1c-0.2-0.5-0.7-0.9-1.2-0.9h-0.5v-0.1l0.2-0.3
	l0.3,0.1h0.3L287.4,25.9z M292.9,30.9h0.2c0.1,0.3,0.2,0.6,0.5,0.9v0.6h-0.2c-0.3,0-0.5-0.4-0.5-1.3V30.9z M310.4,47.8
	c0.6,0.1,1.1,0.1,1.7,0.1v0.3l-0.2,0.3l-0.3-0.1l-1.4,0.1l-0.3-0.4v-0.1c0.2-0.1,0.3-0.1,0.4-0.2L310.4,47.8z"/>
<path class="st0" d="M278.5,34.7L278.5,34.7l0.4-0.5v-0.4l-0.5-0.5l0.6-7.5l-0.5-0.4l0.3-3.3l-0.4-6.7l0.6-3v-0.1v-0.1v-0.3l0.4-1.2
	l-0.6-2.5V7.9V7.7l0.1-0.1l0.2-2h4.4l2.2-0.1l6.5-0.2l2.8,0.1l1.4-0.1h0.5l0.8,0.4l1.4-0.5v0.4l2.3-0.1c1.2,0.2,2.4,0.6,3.5,1.2
	c0.3,0.2,0.5,0.3,0.6,0.5l2.9,0.8c0,0,0.1,0.1,0.1,0.1h0.2l2.5,2.3l0.1-0.2c0.6,0,1.1,0.4,1.7,1.1l0.3,0.4l2.1-0.1v0.9h-1.7
	c0.8,1.7,1.4,3.5,1.9,5.3l0.2,2.1c0.2,3.7-1.7,7-5.5,9.8c4.6,2.4,6.8,6,6.5,10.9l-0.2,3.5c-1.5,5.2-2.9,7.8-4.5,7.7h-0.6
	c-0.1,0.6-1,1.3-2.9,2.1h-0.5v-0.4c0,0-0.1,0-0.1,0h-0.5v-0.1h-1.3l-0.1,1.8c0,0.4-1.3,0.6-3.8,0.6l0,0c-0.1,0-0.3,0-0.4,0l-0.5-0.4
	h-0.9l-0.5,0.4v0.4l-1.4-0.1l-0.2-0.1l-0.2,0.1l-0.8,0.2H297v-0.7h-0.5h-1.9l-1.5,0.1h-0.9l-5.8,0.1l-7.2-0.2l-0.2-0.8H279v-0.1
	v-0.2l0.5-2.1l-0.3-1v-0.1v-0.2l0.6-1c-0.5-1.1-0.6-2.4-0.5-3.6v-0.5c-0.1-1.9-0.1-4.4,0-7.6l-0.3-3.7h-0.7L278.5,34.7z M286.7,54.7
	h0.2c2.5,1.1,5.1,1.6,7.8,1.7c0,0.2,2,0.3,6,0.3c1.8,0,3.6,0,5.5-0.1l4.8,0.3v0.1c-0.5,0.7-1,1-1.4,1c0-0.1,0-0.1-0.2-0.1l-0.2,0.3
	v0.3c0.9,0,1.8,0.2,2.6,0.7c0.3,0,0.6-0.1,0.9-0.3c0.6,0.2,0.9,0.4,0.9,0.6v0.1h-0.2c-0.7,0-2,0-4,0.1l-0.6-0.1
	c-0.2,0.1-0.5,0.2-0.8,0.1c-0.2,0-0.3,0-0.3-0.1l-1.1,0.1h-5.4c-0.4-0.2-0.8-0.2-1.2,0c-0.2,0-0.3,0-0.3-0.1l-1.1,0.1
	c-5.8,0-9.9-0.8-12.3-2.3c-0.2-0.5-0.4-1.1-0.5-1.7C286.3,55,286.5,54.7,286.7,54.7L286.7,54.7z M290.7,56.8l-0.3,0.4v0.1
	c0,0.7,0.2,1,0.5,1.1l0.5-0.3h0.2c0.2,0.2,0.4,0.2,0.6,0.3c0.2,0,0.4-0.1,0.6-0.1c0.2,0.1,0.4,0.1,0.6,0.1l0.3-0.4v-0.3
	c0-0.1-0.5-0.4-1.4-0.9c0-0.1-0.1-0.1-0.3-0.1l-0.6,0.1C291.1,56.9,290.9,56.8,290.7,56.8L290.7,56.8z M296.9,24.7
	c0.2-0.5,1.1-1,2.9-1.4l1.3-3c0-0.9-0.3-1.7-0.8-2.5c-1.1-0.7-2.4-0.9-3.7-0.8l-2.9,0.1c-0.7,0-0.8,1.6-0.3,4.7l0.4,0.4h-0.4
	l0.5,0.4l0.1,0.9l-0.5,0.5v0.3l2.5,0.2l0.2,0.2h0.3l0.1,0.1h0.3L296.9,24.7l-0.2-0.1L296.9,24.7z M294.2,36.3l0.3,0.3v1l-0.5,0.5
	h0.5l-0.5,0.5c-0.2,2.9-0.1,4.8,0.3,5.6l1.2,0.1c3.8,0.2,5.8-1,5.9-3.6l-0.9-3.4c-1.9-0.4-2.9-0.8-2.9-1.4h-0.5l-0.5,0.4l-0.8-0.1
	L294.2,36.3z M295.9,24.5h0.2l-0.3-0.1L295.9,24.5z M296.8,24.8h0.2H296.8C296.8,24.7,296.8,24.7,296.8,24.8L296.8,24.8z
	 M306.7,54.3l0.9-0.7V54l-1,0.7L306.7,54.3z M307.2,54.6l0.9-0.7v0.4l-1,0.7L307.2,54.6z M312.7,56.7l1.8,0.3l0.3-0.1
	c1.2,0.2,2.3,0.3,3.5,0.3h2.3c0.4-0.2,0.8-0.2,1.2,0h2.8c0.4-0.2,0.8-0.2,1.2,0h1.7c2,0.1,3.1,0.4,3.2,0.9v0.1
	c-0.3,0.3-0.6,0.7-0.6,1.1v0.1l0.8,1v0.3c-2.5-0.5-3.9-0.7-4.1-0.7c-1,0.1-1.5,0.2-1.5,0.3l-0.8-0.1h-1.6c-1.5,0-3.1-0.1-4.6-0.3
	l-0.8,0.3c-0.2-0.1-0.4-0.1-0.6-0.1c-0.2,0-0.3,0.1-0.5,0.1c-1.6-0.3-2.5-0.5-2.5-0.7s0.6-0.4,1.8-0.7c0.2,0.2,0.5,0.2,0.8,0.3
	c0.2,0,0.4-0.1,0.6-0.1l0.6,0.3h0.8v0.1h0.3c0.2,0,0.3-0.1,0.5-0.4v-0.4c0-0.2-0.2-0.3-0.5-0.3s-0.5,0.1-0.5,0.3
	c-0.3-0.2-0.6-0.2-0.9-0.3c-0.1,0.1-0.3,0.1-0.5,0.1c-0.4-0.2-0.8-0.4-1.2-0.4h-0.3c-0.1,0-0.2,0-0.2,0.1c-0.4-0.3-0.8-0.5-1.2-0.7
	c-0.6,0.1-1.2,0.2-1.8,0.3l-0.3-0.4v-0.3C312.3,56.8,312.5,56.8,312.7,56.7L312.7,56.7z M319.8,58.6c0,0.4,0.6,0.7,1.8,0.9
	c1-0.4,1.5-0.6,1.5-0.9v-0.1c-0.4-0.3-0.8-0.6-1.2-0.9h-0.3c-0.5,0.4-1.1,0.6-1.7,0.6C319.8,58.3,319.8,58.4,319.8,58.6L319.8,58.6z
	 M323.9,58.1v0.6c0,0.1,0.2,0.2,0.5,0.4l0.3-0.1h1.5c0.1,0,0.2,0,0.2,0.1c0.4-0.1,0.6-0.3,0.6-0.4v-0.1c0-0.1-0.2-0.2-0.5-0.4
	c-0.6,0.1-1.1,0.2-1.7,0.3c0-0.2-0.1-0.3-0.3-0.3H323.9z M328.8,58.6V59c0,0.2,0.1,0.3,0.3,0.3c0,0,0,0,0,0h0.3v-0.4
	c0-0.2-0.1-0.3-0.3-0.3H328.8z M333.9,58.7c1.3,0.3,2.6,0.6,3.8,1.1c2,0.5,3.1,0.9,3.1,1.1v0.1h-0.2c-1.1,0-1.7,0.1-1.7,0.4v0.1
	c0.1,0.2,0.8,0.7,2.3,1.3l0.5,0.7h-0.3c-2.1-0.3-4.1-0.8-6-1.6c-1.6-0.4-2.5-0.7-2.5-1s0.5-0.5,1.5-0.6l0.2-0.3v-0.1l-1.2-1.3
	C333.5,58.8,333.7,58.7,333.9,58.7L333.9,58.7z"/>
<path class="st0" d="M336.9,5.5l2,0.6l0.7-0.6h0.7l0.3,3.7l0.8,9.7l-0.7,0.6v0.6l0.5,3.7v0.6l-0.7,0.6l1.1,3.1l-0.7,1.8
	c-0.4,8.1,0,12.1,1.3,12.2l1.9,0.7l0.7-0.6v0.6l8.9,0.1v-0.6l0.6,0.6h0.7l1.9-0.5l-0.7,0.6v0.6h0.7c0-0.8,0.7-1.2,2.2-1.2l0.6,0.6
	v0.6l-0.7,0.2l0.6,0.6l-0.1,1.8l0.4,5l-0.7,1.8l0.5,1.8v0.6h-0.7v-1.2c-0.9,1.1-2.2,1.7-3.6,1.7l-0.6-0.6v-0.6l-5.8,1l-0.6-0.7
	l-3.2,0.5l-2.5-0.1h-0.7l0.6,0.6l-3.1-0.8l-2,0.5l0.1-1.2l-0.7,0.6h-0.6l-0.6-0.6H335v1.2l-3.8-0.2l-0.6-0.6l-0.7,0.6l-5.1-0.3
	l-0.8-9.7l0.7-0.6l-0.4-4.3l0.3-6.6l-0.6-0.6l0.7-0.6v-0.6l-0.3-6.1l0.7-0.6h-0.7l0.7-0.6l-1-4.3l0.7-1.8l-0.5-3.1h0.7l-0.7-8.7
	c-0.1-1.1,1.4-1.6,4.4-1.5L336.9,5.5z M329.2,7.5v0.6l1.3-1.2V6.4L329.2,7.5z M331.7,12.5l-0.3,0.3v0.3l1-0.3v-0.3H331.7z
	 M332.6,55.3c0.2,0.1,0.4,0.1,0.6,0.1c-0.2,0.5-0.3,0.9-0.5,1.4c0.2,0.7,0.8,1,1.8,1l1.4,0.9h-0.6c-0.9-0.3-1.8-0.5-2.8-0.6
	c-0.3-0.6-0.5-1.2-0.5-1.9v-0.6C332.1,55.6,332.3,55.4,332.6,55.3L332.6,55.3z M338.1,56.3c3.4,0.8,5.2,1.4,5.4,1.9l-0.2,0.3
	l-0.3-0.1h-1.4c-0.2,0-0.3,0.1-0.5,0.4c0.4,0.5,0.7,1,0.9,1.6h-0.2l-0.3,0.1c-1.3-0.5-2.6-0.9-4-1.1c-0.9-0.2-1.4-0.4-1.4-0.6v-0.1
	c1.1,0,1.7-0.3,1.7-0.9c-0.1-0.5-0.3-0.9-0.6-1.3L338.1,56.3z M339.3,58.1c0.1,0.6,0.2,0.9,0.5,0.9h0.2c0.2,0,0.3-0.1,0.3-0.3v-0.1
	c0-0.5-0.2-0.8-0.5-0.9C339.7,57.7,339.5,57.9,339.3,58.1L339.3,58.1z M340.7,62.2h0.6c0.2,0,0.3,0.1,0.5,0.4
	c-0.3,0.5-0.7,0.9-1.1,1.3c0.7,0.5,1.5,0.9,2.3,1.1v0.3c-0.4,0-0.8,0.1-1.2,0.1c-1.3,0-2-0.6-2-1.7c-0.1,0-0.2-0.2-0.2-0.6
	C339.6,62.6,340,62.3,340.7,62.2L340.7,62.2z M342.1,14.4l0.7,1.7l-0.3,0.3h0.3l0.3-0.3v-0.4l-0.3-1.3L342.1,14.4z M342.7,60h0.3
	c0.9,0.3,1.4,0.5,1.4,0.7v0.1l-0.2,0.3c-1.2-0.5-1.8-0.8-1.8-1L342.7,60z M344.7,65.1c0.1,0.1,0.3,0.1,0.5,0.1v0.3h-0.5
	c-0.2,0-0.3-0.1-0.3-0.3L344.7,65.1z M346.4,61.1c0,0.1,0.5,0.4,1.4,0.7l0.2,0.3c0,0.2-0.6,0.4-1.7,0.6h-0.6c-0.2,0-0.3-0.1-0.5-0.4
	v-0.7C345.2,61.2,345.7,61.1,346.4,61.1L346.4,61.1z M348.7,61.9h0.2v0.3h-0.5C348.4,62.1,348.5,62,348.7,61.9
	C348.7,62,348.7,62,348.7,61.9L348.7,61.9z M350.4,61.7c0.2,0,0.3,0.1,0.3,0.3v0.3h-0.6v-0.3C350.1,61.8,350.2,61.7,350.4,61.7
	L350.4,61.7z M350.7,59.2h0.9l0.8,0.1c0,0.3-0.6,0.6-1.7,0.7l-0.3-0.4v-0.1C350.4,59.4,350.6,59.3,350.7,59.2L350.7,59.2z
	 M355.6,59.4c7.2,0.1,11.1,0.4,11.8,0.9l0.8-0.3c0.9,0.2,1.4,0.4,1.4,0.6c-1.1,0.3-1.7,0.5-1.7,0.6c-0.2-0.2-0.5-0.2-0.8-0.3
	c-0.3,0.4-0.6,0.9-0.8,1.4c-0.6,0-1,0.8-1.2,2.4h-0.1c-0.2,0-0.3-0.1-0.3-0.3v-0.7c0-0.1,0.1-0.9,0.3-2.3c0-0.1-0.2-0.3-0.5-0.4
	l-0.8,0.1c0-0.2-0.1-0.3-0.3-0.3c-0.1,0-0.4,0-0.9,0.1c-0.2-0.1-0.4-0.1-0.6-0.1c-0.2,0.2-0.3,0.5-0.3,0.9c0.7,0.7,1.3,1.6,1.5,2.6
	v0.1c0,0.3-0.2,0.4-0.6,0.4c-0.9,0-1.4-0.7-1.4-2l-0.3-0.1c-0.2,0.1-0.4,0.1-0.6,0.1c-0.2-0.2-0.3-0.5-0.3-0.7l0.3-0.1h0.2l0.6,0.4
	l0.2-0.7v-0.1c0-0.5-0.3-0.7-0.8-0.7l-0.5-0.3h-0.3l-0.5,0.3l-0.9-0.1l-0.3,0.4l-2.2-1.3c-0.1,0-0.2,0-0.2-0.1L355.6,59.4z
	 M357.9,61.2l1.1,1l-1.1,1c-0.2-0.5-0.7-0.9-1.2-0.9h-0.5v-0.1l0.2-0.3l0.3,0.1h0.3L357.9,61.2z M363.4,66.2h0.2
	c0.1,0.3,0.2,0.6,0.5,0.9v0.6h-0.2c-0.3,0-0.5-0.4-0.5-1.3V66.2z M367.6,66.2v0.1c0,0.2,0.1,0.3,0.3,0.3c0,0,0,0,0,0h0.2l0.3-0.1
	c-0.1-0.2-0.2-0.4-0.2-0.6h-0.3C367.7,66,367.6,66.1,367.6,66.2L367.6,66.2z M373.4,65.9c0,0.2,0.1,0.3,0.3,0.3c0,0,0,0,0,0h0.3
	v-0.3c0-0.2-0.1-0.3-0.3-0.3S373.3,65.7,373.4,65.9L373.4,65.9z M378.5,66.4c0.7,0.2,1.2,0.6,1.7,1.1c0,0.1-0.2,0.2-0.5,0.4
	l-1.1-0.1h-2.2c-0.2,0-0.3-0.1-0.3-0.3C377.6,67.2,378.4,66.8,378.5,66.4L378.5,66.4z M377.3,65.1h0.5v0.4h-0.5V65.1z M379.6,64.9
	c0.1,0.1,0.3,0.1,0.5,0.1v0.2c0,0.2-0.1,0.3-0.3,0.3h-1.2v-0.1C378.9,65.4,379.3,65.2,379.6,64.9L379.6,64.9z M379.8,61.1
	c2.4,0,3.5,0.5,3.5,1.6l-0.3,0.1c0-0.1-0.3-0.3-0.8-0.6l-1.1,0.1c-0.4-0.6-1-0.9-1.7-0.9l-0.2-0.3C379.5,61.2,379.7,61.2,379.8,61.1
	L379.8,61.1z M381.4,66.9c0.6,0.2,0.9,0.4,0.9,0.6v0.1l-0.8,0.1h-0.9c-0.2,0-0.3-0.1-0.3-0.3v-0.1C380.7,67.3,381.1,67.2,381.4,66.9
	L381.4,66.9z M385.6,65.7l-0.3,0.4v0.2c0.2,0.4,0.6,0.6,1.1,0.6h0.2c0.1,0,0.2-0.1,0.5-0.4C386.9,66.1,386.5,65.9,385.6,65.7
	L385.6,65.7z M387.6,65.9v0.4c0.4,0,0.8,0.1,1.2,0.3l0.3-0.4v-0.3c0-0.1-0.2-0.3-0.5-0.4h-0.2C387.9,65.6,387.6,65.7,387.6,65.9
	L387.6,65.9z M388.4,65.9v0.6h0.2c0.2,0,0.3-0.1,0.3-0.3s-0.1-0.3-0.3-0.3L388.4,65.9z M395.4,67.4v0.4h0.5v-0.4H395.4z M396.3,67.7
	v0.6h0.2c0.2,0,0.3-0.1,0.3-0.3c0-0.2-0.1-0.3-0.3-0.3L396.3,67.7z M412.8,68.3l-0.2,0.3v0.4c0,0.3,0.6,0.5,1.7,0.6v-0.1
	C414.1,68.8,413.5,68.3,412.8,68.3L412.8,68.3z"/>
<path class="st0" d="M379.2,5.1v0.1l0.2-0.1c0.8,0.1,1.3,0.2,1.3,0.4c-0.1,0.9-0.1,1.3-0.3,1.3l0.3,0.7l-0.1,0.1v0.2l0.3,0.9
	l-0.2,0.7v2.5h-0.3V12l0.3,0.4v0.1l-0.1,0.8l0.3,1.6l-0.2,0.1v1.5l0.2,0.1l-0.2,0.1v0.6l0.2,0.1l-0.2,0.1v0.1l0.2,0.5l-0.2,0.1h-0.1
	l0.1,0.1v0.3l-0.1,0.1l0.3,1.6l-0.2,0.1v0.1l0.2,0.9l-0.2,0.1V22l0.2,0.1v0.2l-0.2,0.4h0.2l-0.2,0.4l-0.1-0.1h-0.2l-0.2,0.1v0.1
	l0.3,0.3v0.1h-0.3v0.1l0.4,0.6v1l0.2,0.6l-0.3,0.9h0.3l-0.2,0.6l0.2,0.4l-0.2,1.3v0.6l0.2,0.1l-0.3,0.8l0.3,0.7l-0.2,0.1v0.1
	l0.2,0.5l-0.6,0.1l0.2,0.1v0.1l-0.3,0.3h-0.3c0-0.2-0.2-0.5-0.6-0.7l-0.5,0.3l-0.5-0.1v0.3h-0.1v-0.3h-0.1v0.1
	c0.1,0.3,0.4,0.6,0.7,0.6v-0.4h0.4l0.8,0.4l0.4-0.1l0.2,0.1v0.1h-0.2l0.4,0.8h-0.3v0.1l0.1,0.1v0.1h-0.1l0.1,0.1v0.1l-0.5,0.6
	l-0.3-0.3h-0.2l-0.3,0.3v0.5h0.2v-0.3l0.1,0.1h0.2l0.7-0.3c0,0.4,0,0.8,0.3,1.2l-0.2,0.1h-0.1l0.1,0.7l-0.1,0.2v0.1l0.1,0.6
	l-0.1,0.1v0.1l0.3,0.8l-0.4,0.1v0.1l0.3,0.4l-0.1,0.4h0.3l-0.2,0.1v0.1l0.2,0.1c0,0.3-0.2,0.5-0.6,0.5v0.2h0.3l0.3,0.3v0.1l-0.3,0.4
	l0.3,0.8l-0.2,0.1h0.2c0,0.6-0.4,1.2-1,1.3v0.1l0.2,0.1h0.2l0.1-0.5l0.2,0.2h0.2l0.1-0.2l0.2,0.9h-0.2l0.2,0.1v0.1l-0.2,0.1l0.2,0.8
	v0.3l-0.2-0.1h-0.1v0.3l-0.2-0.1h-0.2v0.3h0.2l0.2-0.1h0.1l0.2,1v0.6l-0.2,0.1l0.2,0.1v0.3l-0.2,0.6l0.2,0.6l-0.2,0.1v0.2l0.2,0.1
	l-0.2,0.7v0.3l0.2,0.1v0.1h-0.2l0.2,0.4l-0.2,0.4l0.2,1l-0.2,0.1v0.1l0.2,0.4l-0.2,0.1v0.1l0.2,0.6l-0.3,0.3h-0.5l-1.3,0.1l-0.6-0.1
	l-0.6,0.1l-1-0.1l-0.4,0.1l-0.7-0.1l-2.6,0.1l-0.2-0.1l-0.1,0.1v-0.1l-0.5,0.1l-0.1-0.1l-0.7,0.1l-0.4-0.1l-0.7,0.1h-0.8l-0.2-0.1
	h-0.2l-0.2,0.1v-0.1l-0.1,0.1h-1.7c-1,0-1.5-0.1-1.5-0.4l0.3-0.3l-0.2-0.1v-0.2c0-0.7,0.1-1,0.3-1l-0.2-0.1v-0.2l0.2-0.1V53
	l-0.2-0.2h-0.2l0.2-0.4l0.2,0.1h0.1v-0.2h-0.1l-0.2,0.1h-0.2V52h0.3v-0.1l-0.4-0.8l0.1-0.4l-0.1-0.6l0.1-0.4l-0.1-0.1v-0.2l0.1-0.9
	h0.3l-0.2,0.1v0.1h0.2l0.3-0.3c-0.5-0.1-0.7-0.2-0.7-0.4l0.1-0.1v-0.1l-0.1-0.5h0.1l-0.1-0.1v-0.6l0.1-0.4l-0.1-0.8v-2.3l-0.2-0.6
	l0.3-1.2l-0.3-1.6l0.2-0.1h-0.2l0.2-0.1v-0.1l-0.2-0.1l0.2-0.1v-2.2l0.1-0.6l-0.1-0.6v-0.1l0.1-0.5l-0.1-0.7V31l0.1-0.6l-0.3-1
	l0.2-0.1v-5.1l-0.2-0.1l0.4-2l-0.4-1.9l0.3-0.8h-0.1l0.1-0.1V19l-0.1-0.1v-0.1l0.3-0.3v-0.1h-0.3l0.3-0.5h-0.2l0.2-0.4l-0.3-0.6h0.1
	l-0.1-0.1v-1.2l0.1-1l-0.1-0.1h0.1l-0.1-0.1V14l0.1-0.1l-0.3-0.9l0.2-0.1V10l0.1-0.9l-0.1-0.7V8.2l0.4-1.2h0.1v0.3h0.3l0.3-0.3
	l-0.3-0.3l0.2-0.4h-0.2l-0.2-0.1V6l-0.2,0.2h-0.4l0.2-0.5h0.3l0.2,0.1h0.2c0-0.3,0.3-0.5,1-0.6l0.1,0.1h0.2l0.6-0.1l0.3,0.3V5.3h0.2
	l0.6,0.1l0.2-0.1l0.7,0.1h1.7l0.2,0.1h0.2V5.3h0.3l0.2,0.1l0.2-0.1h0.3l0.6,0.1l0.6-0.1l0.4,0.1l0.7-0.1h0.4l0.8,0.1l0.2-0.1h0.2
	l0.1,0.1L379.2,5.1z"/>
<path class="st0" d="M421.8,5.7l8.1,0.1v0.1h5.3V6c0.2,0,0.2,0,0.2,0.1l-0.2,0.2v0.1h0.1V6.3h0.1h0.1l0,0V6.1V5.8l0.3,0.4l-0.1,0.2
	l0.1-0.1h0.1l-0.1,0.2l-0.3-0.2l-0.1,0.1v0.1l0.1,0.1V6.5c0.2,0.1,0.3,0.4,0.3,0.6h0.1V6.8l-0.1-0.1h-0.1c0.1-0.2,0.1-0.3,0.2-0.3
	h0.1v0.1h-0.1v0.1c0.1,0.2,0.1,0.2,0.2,0.2l0.1-0.1l0.2,0.1V7l-0.2,0.1L436.2,7h-0.1v0.2l0.1,0.2h-0.2l0,0l0.2,0.1L436,7.9h0.1
	c0.1,0,0.2-0.2,0.2-0.6c0.1,0,0.2,0.1,0.2,0.2l-0.1,0.1v0.1l0.1,0.2h-0.1l0.1,0.1h-0.1l-0.3-0.1L436,8v0.1h0.1l0.2-0.1l0.2,0.5
	l-0.1,0.1h0.2l-0.1,0.1v0.1l0.1,0.6l-0.1,0.5l0.1,0.2c-0.1,0-0.2,0.1-0.2,0.3v0.1h0.1c0-0.1,0-0.2,0.2-0.2l-0.1,0.6
	c0,0.4,0.1,0.6,0.2,0.6l-0.2,0.2l0.1,0.1v0.1l-0.1,4.7l0.1-0.1h0.1l-0.1,0.4v0.1l0.1,0.1l-0.1,0.2l0.1,0.1v0.2l-0.1,0.1l0.1,0.3v0.1
	l-0.1,0.4h0.1l-0.2,0.5l0.1,0.2l-0.1,0.1V19l0.2,0.3c-0.1,0.3-0.2,0.7-0.2,1.1v0.4c-0.2,0-0.3,0-0.3,0.1l0,0l0.2-0.1l0.1,0.1v0.2
	l-0.1,0.2l0.2,0.6l-0.2,0.4h-0.1l0.2,0.2v0.2h-0.2l0.1-0.1l-0.1-0.2h-0.1v0.1h-0.1l0.1,0.2V23h-0.1c0-0.2,0-0.3-0.1-0.3l0.1-0.4
	l-0.2-0.1h0v0.1l0.1,0.1v0.1l-0.1,0.2h0.1l0.3,0.6l0.1-0.1l0.1,0.2c0,0.2-0.1,0.3-0.2,0.3V24h0.2v0.1l-0.1,0.1l0.1,0.2v0.2h-0.1
	v-0.2h-0.1v0.1h-0.1v-0.2h-0.1v0.1l0.3,0.5l-0.1-0.1h-0.1V25l0.2,0.2l-0.1,0.6h0.2v0.1l-0.1,0.1l0.1,0.1v0.2h-0.1l0.1,0.1v0.1
	l-0.1,0.1v0.1l0.2,0.9l-0.1,0.2l0.1,0.1h-0.1l0.1,0.1l-0.2,0.6l0.2,0.2h-0.1v0.3l0.1,0.1l-0.1,0.1v0.1l0.1,0.1h-0.1v0.2l0.1,0.7
	c0,0.3-0.1,0.5-0.2,0.5l0.1,0.1v0.3h-0.1v0.1h0.2V31c0,0.3,0,0.5-0.2,0.5l0.1,0.1v0.1l-0.1,0.6l0.1,0.1v0.1l-0.1,0.1v0.1l0.1,0.2
	h-0.1l-0.2,0.1h0.2l-0.1,0.2l0.1,0.1v0.2l-0.1,0.2l-0.1-0.1h-0.1v0.1v0.1v0.1v0.2l-0.5-0.4l-0.1,0.1v0.1v-0.1h-0.4v0.1l0.1-0.1h0.2
	v0.1c0,0.1-0.1,0.2-0.4,0.2v0.2l0.1-0.1h0.2c0,0.2,0.1,0.3,0.2,0.3v-0.1l-0.1-0.1h0.2l0.1,0.4h-0.1l-0.1,0.1l0,0
	c0-0.1-0.1-0.1-0.3-0.2l-0.3,0.1l-0.4-0.1h-0.1l0.2,0.4l-0.1,0.4l0.1,0.1v0.1l-0.1,0.2v0.1h0.1l0.1-0.4c0.1,0,0.2,0.1,0.2,0.2
	l-0.2,0.3h0.1l0.1-0.1v0.2v0.1v0.1h0.1c0.1-0.2,0.1-0.4,0.2-0.4v0.1h0.1l-0.1,0.1v0.1l0.1,0.2h0.2l-0.1-0.1v-0.3l0.2-0.1l-0.1,0.3
	l0.1,0.4h0.1c0-0.1,0.1-0.2,0.3-0.3v0.1l-0.2,0.2l0,0l0.1,0.1h0.1l0.1-0.1v0.2h0.1l0.1-0.1h0.1v0.1h-0.2l-0.1,0.2l0.1,0.2h0.1v-0.2
	h0.1l0.1,0.2l-0.1,0.1v0.1l0.1,0.6l-0.1,0.2h0.1l-0.1,0.1l0.1,0.5v0.2h-0.2v0.1h0.2v0.8l0.1,0.5h-0.1l0.1,0.1v0.1l-0.1,0.3l0.1,0.1
	l-0.1,0.3l0.1,0.3l-0.1,0.4l0.1,0.4l-0.1,0.1h0.1l-0.1,0.1v0.5l0.1,0.1l-0.2,0.2l0.1,0.3l-0.1,0.1v0.1l0.1,0.1h-0.1l0.1,0.1v0.1
	l-0.1,0.4h0.1l-0.1,0.1v0.3l0.1,0.4l-0.1,0.2l0.1,0.1h-0.2v0.1l0.1,0.1l0,0h-0.1l0.2,0.4h-0.1l0.1,0.1v0.1l-0.2,0.1l0.2,0.2
	l-0.1,0.1l0.1,0.3v0.4l-0.1,0.2l0.1,0.1v0.1l-0.1,0.8h0.1l-0.1,0.1v0.1l0.1,0.4l-0.1,0.2l0.1,0.2l-0.1,0.1l0.1,0.4v0.4l-0.1,0.1l0,0
	h0.1l-0.2,0.5h0.1v0.8l0.1,0.4l-0.1,0.3l0.1,0.1l-0.1,0.1h0.1l-0.1,0.1v0.5l0.1,0.1V53h-0.2l0,0h0.2l-0.1,0.1v0.1l0.1,0.3l-0.1,0.1
	l0,0l0.1,0.3l-0.1,0.2h0.1c0,0.2-0.1,0.3-0.2,0.3l0.1,0.1v0.1l-0.6,0.1l-0.2-0.1l-0.2,0.1v-0.1l-0.1,0.1h-0.4v-0.1l-0.1,0.1h-0.5
	l-0.1-0.1l-0.1,0.1h-0.3l-0.1-0.1h-0.1v0.1h0.1h-0.1h-0.4h-0.1h-0.1h-0.3h-0.1v0.1h-0.1v-0.1h-0.1h-0.1h-0.1l0,0h-0.1h-0.6h-0.1
	h-0.1l-0.4,0.1l-0.1-0.1l0,0h-0.1h-0.3h-0.3l-0.6,0.1l-0.1-0.1h-0.4v0.1h-0.1v-0.1l-0.1,0.1h-0.1l-0.1-0.1h-0.1l-0.1,0.1h-0.1
	l-0.7-0.1v0.1l-0.1-0.1h-0.1l-0.1,0.1l-0.4-0.1h-0.1l-0.1,0.1h-0.1l-0.1-0.1l0,0l-0.3,0.1l-0.1-0.1h-0.1l-0.3,0.1l-0.1-0.1l-0.2,0.1
	l-0.4-0.1l-0.1,0.1v-0.1v0.1h-0.1l-0.4-0.1l-0.1,0.1h-0.1l-0.3-0.1l-0.1,0.1l-0.4-0.1l-0.2,0.1c-0.2,0-0.4-0.3-0.8-0.8l-1.5-2.2
	c-0.8-0.9-1.5-1.8-2.2-2.8l-2.5-3.4c-0.6-0.7-1.2-1.4-1.6-2.2c-0.2,0-0.4-0.3-0.7-0.8h-0.1l0.1-0.1v-0.1c-0.9-0.9-1.6-1.8-2.3-2.9
	c-0.3-0.4-0.5-0.7-0.6-0.7l-0.9-1.2l-1.2-1.5l-3-3.7l-0.1,0.1c-0.2-0.5-0.5-0.9-0.8-1.2c-0.2-0.4-0.4-0.5-0.7-0.5v0.1l-0.2,0.3
	l0.2,0.5h-0.2v0.1h0.2l-0.1,0.1v0.1l0.1,0.1l-0.1,0.1v0.1l0.1,0.4l-0.1,0.8v0.9l-0.1,0.3h0.1l-0.1,0.1V35h0.1l-0.2,0.4l0.1,0.1v0.1
	l-0.2,0.2l0.1,0.2h-0.1l0.2,0.6h-0.1l0.1,0.1V37l-0.1,0.1l0.1,0.1v0.1l-0.1,0.4l0.1,0.2h-0.1c0.1,0.6,0.2,1.2,0.2,1.8h0.1l-0.1,0.1
	v0.8l0.1,0.1l-0.1,0.1v0.1l0.1,0.1l-0.1,0.2l0.1,0.5l-0.1,0.1v0.1l0.1,0.4v0.1l-0.1,0.1l0.1,0.7V43l0,0v0.1v0.1v0.1v0.1l0,0v0.1v0.1
	v0.2v0.1v0.1V44v0.3v0.4v0.1v0.1v0.2v0.4v0.1l0,0l0.1,0.8h-0.1l0.1,0.1v0.1l-0.1,0.3h0.1l-0.1,0.1h0.1l-0.1,0.2l0.1,0.5h-0.1
	l0.1,0.1v0.1l-0.1,0.1v0.1l0.1,0.1h-0.1h0.1v0.1l-0.1,0.4l0.1,0.2l-0.1,0.2h0.1l-0.1,0.1v0.1l0.2,0.5l-0.1,0.3l0.1,0.1l-0.2,0.6
	l0.1,0.2h-0.1v0.1h0.1v0.3l0.1,0.4h-0.2v0.1h0.2h-0.1v0.2l0.1,0.1l-0.1,0.1v0.1l0.1,0.8l-0.1,0.2l0.1,0.2v0.4l-0.1,0.2l0.2,0.3
	l-0.1,0.1v0.1l0.1,0.2l-0.2,0.1l0.1,0.3l-0.3,0.3l-0.1-0.1h-0.2v0.1h-0.1l-0.1-0.1l0,0l-0.2,0.1V55l-0.1,0.1h-0.6l-0.3-0.1l-0.8,0.1
	l-0.3-0.1v0.2l-0.2-0.1l-0.2,0.1v-0.1l-0.2,0.1l-0.1-0.1l-0.8,0.1l-0.4-0.1h-0.7v0.1l-0.1-0.1h-0.2l-0.4,0.1l-0.1-0.1v0.1l-0.2-0.1
	l-0.1,0.1h-0.1l-0.1-0.1H399l-0.3,0.1l-0.7-0.2l-7.1-0.2c0-1.9-0.1-3.7-0.3-5.6h0.1l-0.1-0.1v-0.1l0.1-0.1c-0.1-0.5-0.2-0.9-0.2-1.4
	v-0.4l-0.1-0.1l0.1-0.1v-0.2l-0.1-0.1l0.1-0.1l-0.1-0.3v-0.2h0.1l-0.1-0.1v-0.1l0.1-0.1l-0.1-0.1v-1.9l0.1-0.2l-0.1-0.3V38h0.1
	l-0.1-0.1v-1.8l-0.1-0.1v-0.1h0.1l-0.1-0.1v-0.1l0.1-0.2h-0.1l0.1-0.1v-0.1l-0.1-0.1l0.1-0.2l-0.1-0.2V35v-0.4v-0.1l0,0v-0.3v-0.1
	v-0.1v-0.1v-0.2l0,0v-0.1v-0.1v-0.1v-0.1v-0.8l-0.1-0.1l0.1-0.1v-0.1l-0.1-0.1l0.1-0.1v-0.2l-0.2-0.6l0.1-0.8l-0.1-0.2l0.1-0.1
	l-0.1-0.7v-0.6l0.1-0.1l-0.1-0.1c0-0.3,0.1-0.4,0.2-0.4l-0.1-0.3v-0.1l0.1-0.4l-0.1-0.1l0.1-0.4v-0.5V27V27v-0.1v-0.4l-0.1-0.5
	l0.1-0.1l-0.2-0.9l0.1-0.1v-0.1l-0.2-0.6l0.1-0.3c0-0.3,0-0.4-0.2-0.4l0.2-0.5l-0.2-0.7v-0.1h0.1l-0.1-0.4v-0.7h0.1L390,21v-0.1h0.1
	L390,20v-0.5l0.1-0.1l-0.2-0.2l0.1-0.1v-0.1l-0.1-0.2h0.1l-0.1-0.1v-0.5l0.1-0.1h-0.1v-0.8l0.1-0.1c-0.1-0.5-0.2-1-0.2-1.5h-0.1
	l0.1-0.2l0.2-2.1l-0.1-0.1v-0.1L390,13H390V13l0.1-0.1v-0.1H390l0.1-0.2l-0.1-0.2l0.1-0.1h0.1L390,12l0.2-1.4l-0.1-0.2l0.1-0.1
	l-0.1-0.1l0.1-0.1h0.1l-0.1-0.2c0-0.9,0-1.4,0.1-1.4V8.6V8.1V7.8l0,0l0.1-0.3h-0.1V7.3V6.9V6.8V6.8V6.5l0.3-0.1h0.4l0.1,0.1
	c0.4-0.1,0.8-0.2,1.2-0.1h0.5v0.1c0.3-0.1,0.5-0.2,0.8-0.1h0.4l0.1,0.1h0.1l0.1-0.1V6.1l0.4,0.1h0.1l0.1-0.1h0.2v0.1l0.3-0.1h0.1
	h0.1h0.6h0.2h0.7h0.9l0.3-0.1l0.1,0.1l0.2-0.1l1.1,0.1h-0.1v0.1h0.1l0.2-0.2h0.1v0.1L400,6h0.3l0.1,0.1l0.1-0.1h0.5v0.1h0l0.4-0.2
	l0.4,0.1l1.4-0.1l0.1,0.1h0.1l0.3-0.1h0.2l0.1,0.1l0.1-0.1h0.4c0.1,0,0.2,0.1,0.3,0.5c0.2,0,0.3,0.1,0.3,0.2v0.1v0.2l0,0l0.1-0.1
	h0.1c0,0.2,0,0.3,0.2,0.3s0.2,0.1,0.2,0.4l0,0V7.3h0.1c0.4,0.8,0.7,1.1,0.9,1.1h-0.1v0.1c0.1,0,0.2,0.1,0.2,0.2s0.2,0.1,0.2,0.2h0.1
	L406.9,9v0.1l0.7,0.7l0,0l0.4,0.6l-0.1,0.1l0.4,0.5l0.1-0.1l1,1.3v0.1l-0.1,0.1v0.1c0.2,0,0.4,0.2,0.6,0.6h0.1l0,0h0.1v0.1h-0.1
	l0.9,1.2l0.2,0.2h0.1l-0.1,0.1v0.1c0.1,0,0.3,0.2,0.5,0.5c0.2,0.2,0.3,0.4,0.3,0.7l0.1-0.1h0.1l1.5,2c0,0.1,0.1,0.2,0.2,0.2l0.7,0.9
	c0.3,0.5,0.6,0.9,1,1.2l0.3,0.7h0.1v-0.1h0.1c0.3,0.8,0.8,1.5,1.3,2.1l0.3,0.6h-0.1c0.1,0,0.4,0.4,0.9,1.1l-0.1,0.2l0.1-0.1h0.1
	l0.7,0.8v0.2l-0.1,0.1v0.1h0l0.1-0.1h0.1c0,0.1,0.2,0.3,0.5,0.6c0.3,0.5,0.6,0.9,1,1.3c0,0.1,0.1,0.4,0.4,0.6l0.2,0.3
	c0.3,0,0.4-0.2,0.4-0.6l0.1-0.1l-0.1-0.9v-0.1v-0.1v-0.1v-0.1V26l0,0l0.1-0.6l-0.1-0.3h0.1h-0.1v-0.7h0.2v-0.2l-0.2-0.2h0.2
	c0-0.2,0-0.4-0.2-0.4l0.1-0.1V23h0.2v-0.2h-0.2l0.2-0.5c-0.2,0-0.2-0.1-0.2-0.2l0.1-0.1l-0.2-0.6l0.1-0.1l-0.1-0.3v-0.1l0.2-0.6
	l-0.1,0.1h-0.1v-0.6v-0.1l-0.1-0.9h0.1l-0.1-0.1l0.1-0.5v-0.2V18V18v-0.1v-0.2v-0.1v-0.1h-0.1v-0.1l0.1-0.3l0,0l0,0l-0.1-0.2
	l0.1-0.9v-0.7l0,0c0.2,0,0.2,0,0.2-0.1c-0.2,0-0.3,0-0.3-0.1l0,0V15v-0.2v-0.3v-0.3V14l0.2,0.2v-0.1l-0.2-0.1v-0.1
	c0.2,0,0.2-0.1,0.2-0.3h-0.2v0.1l0.1,0.1l0,0h-0.2v-0.3l0.2-0.1l0.1,0.1l0.1-0.1v-0.1c-0.2,0-0.3-0.1-0.3-0.2v-0.1v-0.1v-0.4
	l0.1-0.1l-0.1-0.1v-0.1l0.1-0.3h-0.1h0.1v-0.1l-0.1-0.3l0.1-0.2h0.1h0.1l0.2-0.1h-0.2l-0.1,0.1h-0.1v-0.1l0.4-0.5h-0.4v-0.1l0.3-0.1
	v-0.1l-0.2-0.2l-0.2,0.2v-0.2l0.1-0.5l-0.1-0.1l0,0l0.3-0.4l-0.1-0.2h0.2l-0.2-0.2V8.8h0.2V8.7l-0.1-0.1l0.1-0.1V8.5l-0.1-0.2
	l0.1-0.3V7.9l-0.1-0.1l0.1-0.1V7.4l-0.1-0.1V7.3h0.1l-0.1-0.1l0,0l0.1-0.3l-0.1-0.1V6.8l0.1-0.1l-0.1-0.4L421.8,5.7z M390.9,9.9
	c0,0.1,0.1,0.1,0.3,0.2l0,0L390.9,9.9L390.9,9.9z M421.7,12.1l0.2,0.1h0v-0.1H421.7z M435.2,6.8L435.2,6.8L435.2,6.8V7l0.2-0.1V6.7
	L435.2,6.8z M435.3,4.5l0.2,0.1l-0.1,0.1h-0.1L435.3,4.5z M435.5,4.8l0.1,0.2l0.2-0.1h0.1V5h-0.2l0.1,0.1v0.1l-0.3-0.1v0.2h0.1
	l-0.2,0.2V5.3l-0.1,0.1L435.5,4.8z M435.5,4.7h0.3v0.1L435.5,4.7L435.5,4.7z M435.5,7.5v0.2h0.1V7.3C435.6,7.3,435.5,7.3,435.5,7.5
	L435.5,7.5z M435.7,5.6c0.1,0,0.2,0.1,0.3,0.3h-0.1C435.8,6,435.8,5.9,435.7,5.6L435.7,5.6z M435.9,8.5v0.1h0.2L435.9,8.5L435.9,8.5
	z M436,8.3l0.1,0.2l0.1-0.1V8.3L436,8.3z M436.2,6.3L436.2,6.3l0.1,0.3l-0.1,0.1h-0.1L436.2,6.3z M436.2,6.1L436.2,6.1l0.2,0.1h-0.1
	L436.2,6.1z"/>
<path class="st0" d="M465,0c7.2,0,12.8,2.1,16.8,6.4l1.8,2.3c1.2,1.9,1.9,4.1,1.9,6.3c0.2,0,0.4,1.6,0.5,4.9l-0.2,4.1l0.3,0.8
	c-0.4,1.1-0.6,2.2-0.7,3.4l-1.9,3.6c-3.3,3.8-6.7,6.2-10.2,7.1c-2.3,0.6-4.7,1-7.2,1h-2.4c-7.3,0-12.7-2.3-16.3-6.8
	c-1.2-1.4-2.1-2.9-2.7-4.6c-0.9-1.7-1.3-4.4-1.3-8.1v-0.1l0.3-5l-0.2-0.7c0.3-1.6,0.9-3.2,1.8-4.6c0.2-0.9,0.7-1.8,1.5-2.3
	c0-0.4,1-1.6,3-3.5l3.9-1.8C457.3,0.6,461.1-0.1,465,0z M447,20.4c0,4.2,1.1,7.4,3.3,9.8c0,1.6,2.1,3.2,6.2,5c1,0.4,3.5,0.9,7.6,1.4
	c4.4,0.1,8.8-1.2,12.5-3.6c0-0.3,0.7-1,2-2l2.9-6l0.7-5.5c0-8.5-4.2-13.6-12.6-15.5l-3.9-0.5c-6.6,0.4-9.9,1.2-9.9,2.3
	c-1.6,0.4-3.8,2.3-6.5,5.7C448.3,11.8,447.5,14.8,447,20.4L447,20.4z M456.1,6l0.3,0.2h0.3l1.5-0.2l0.6,0.5h0.3V6l1.5,0.2l0.9-0.2
	l1.8,0.5l1.5-0.3h2.1l1.2,0.3l0.9-0.3l-0.6,0.8v0.2h0.6l0.9-0.5h0.6v0.5h0.6l0.3-0.2h0.3l0.9,0.8l-0.3,0.3v0.2l0.6,0.6V8.2h0.3
	c0.3,0,0.6,0.4,0.9,1.1h0.6v0.2l-0.3,0.3v0.3l1.2,0.8h-0.6v0.6h0.3l0.3-0.3h0.3l1.2,4.9l-0.3,0.3v0.3l0.3,0.3l-0.9,3.4
	c-0.5,1.3-0.9,1.9-1.2,1.9l-0.3,0.3v0.6c-0.9,0.2-1.7,0.8-2.1,1.7v1.1l4.5,7.7V34h-2.1l-2.6-0.2l-0.3,0.2l-3.2-0.2l0.3-0.3v-0.3
	c-0.4,0-0.6-0.5-0.6-1.4l-0.3,0.3h-0.3l-0.9-1.9h0.3l-0.6-1.1l0.3-0.3h-0.6l0.3-0.3V28c-0.8,0-1.2-0.6-1.2-1.9l-2.4-0.3l-0.6,1.4
	l0.3,1.1v0.2l-0.7,0.8v0.2h0.6v0.8h-0.6l0.6,0.8l-0.3,0.3l0.3,0.2v1.4l-0.6,0.6h-3.2l-2.4-0.6l-0.9,0.3v-0.3l-0.6-1.4l0.3-0.2
	l-0.3-1.4l0.6-1.7h-0.6c0-0.5,0.3-0.8,0.9-0.8l-0.6-0.8v-0.3l0.3-0.3V26h-0.6l0.6-1.9l-0.3-0.3h0.6c0-0.5,0.3-0.8,0.9-0.8
	c0-0.4,0.4-0.6,1.2-0.6v-0.5h-0.9c0,0.5-0.3,0.8-0.9,0.8l-0.3-0.3V23l-0.6-0.6v-1.6l0.3-0.2l-0.3-0.3v-0.6l0.3-0.2l-0.3-0.3l0.3-1.4
	l-0.3-1.9l0.3-0.8h-0.3c0.1-0.7,0.4-1.1,0.9-1.1v-0.2h-0.6v-0.3l0.3-0.3l-0.3-0.3v-0.2l0.3-0.3l-0.3-0.3V11l0.3-0.3l-0.3-0.2v-0.3
	l0.3-0.8l-0.3-0.8h0.3l-0.3-0.2V8l0.9-0.8V6.9L456.1,6z M462.6,12.9l0.3,0.3v0.6h-0.6v0.5h0.6v1.9l-0.3,2.8l3.8,0.6
	c1.1,0,2-0.8,2.7-2.5l0.3,0.2h0.5v-0.5c-0.5,0-1.1-1-1.8-3l-3-0.6l-0.3,0.3h-1.8v-0.6H462.6z"/>
</svg>
