<?xml version="1.0" encoding="UTF-8"?>
<svg width="233px" height="28px" viewBox="0 0 233 28" version="1.1" xmlns="http://www.w3.org/2000/svg" xmlns:xlink="http://www.w3.org/1999/xlink">
    <!-- Generator: Sketch 47.1 (45422) - http://www.bohemiancoding.com/sketch -->
    <title>logo</title>
    <desc>Created with Sketch.</desc>
    <defs></defs>
    <g id="Symbols" stroke="none" stroke-width="1" fill="none" fill-rule="evenodd">
        <g id="logo" fill="#000000">
            <path d="M14.616,-0.668 C22.0626002,-0.668 27.792,4.97860022 27.792,12.4 C27.792,19.8217601 22.0626002,25.468 14.616,25.468 C7.16939978,25.468 1.44,19.8217601 1.44,12.4 C1.44,4.97860022 7.16939978,-0.668 14.616,-0.668 Z M14.616,5.164 C10.5858001,5.164 7.632,8.18872015 7.632,12.4 C7.632,16.6116402 10.5858001,19.636 14.616,19.636 C18.6458401,19.636 21.6,16.6116402 21.6,12.4 C21.6,8.18872015 18.6458401,5.164 14.616,5.164 Z M31.6686667,-0.2 L41.0545867,-0.2 C48.3917466,-0.2 53.9425867,5.227 53.9425867,12.4 C53.9425867,19.5733598 48.3917466,25 41.0545867,25 L31.6686667,25 L31.6686667,-0.2 Z M37.7886667,5.632 L37.7886667,19.168 L41.0545867,19.168 C45.0685867,19.168 47.8225867,16.414 47.8225867,12.4 C47.8225867,8.386 45.0685867,5.632 41.0545867,5.632 L37.7886667,5.632 Z M57.8293333,-0.2 L67.2152534,-0.2 C74.5524133,-0.2 80.1032534,5.227 80.1032534,12.4 C80.1032534,19.5733598 74.5524133,25 67.2152534,25 L57.8293333,25 L57.8293333,-0.2 Z M63.9493333,5.632 L63.9493333,19.168 L67.2152534,19.168 C71.2292534,19.168 73.9832534,16.414 73.9832534,12.4 C73.9832534,8.386 71.2292534,5.632 67.2152534,5.632 L63.9493333,5.632 Z M94.6668801,11.1774398 L94.6668801,16.1814398 L102.18656,16.1814398 C101.03888,18.3338795 98.8508001,19.6359995 96.086,19.6359995 C92.0558001,19.6359995 89.102,16.6116396 89.102,12.3999995 C89.102,8.1887196 92.0558001,5.16399945 96.086,5.16399945 C99.0743598,5.16399945 101.43488,6.82719934 102.4022,9.40407941 L108.82892,9.40263965 C107.59052,3.51015991 102.49148,-0.668 96.0856402,-0.668 C88.63904,-0.668 82.9096402,4.97860022 82.9096402,12.4 C82.9096402,19.8217601 88.63904,25.468 96.0856402,25.468 C103.53224,25.468 109.26164,19.8217601 109.26164,12.4 C109.26164,12.03604 109.19864,11.4251199 109.11764,11.1774398 L94.6668801,11.1774398 Z M124.874667,-0.668 C132.321267,-0.668 138.050667,4.97860022 138.050667,12.4 C138.050667,19.8217601 132.321267,25.468 124.874667,25.468 C117.428066,25.468 111.698667,19.8217601 111.698667,12.4 C111.698667,4.97860022 117.428066,-0.668 124.874667,-0.668 Z M124.874667,5.164 C120.844467,5.164 117.890667,8.18872015 117.890667,12.4 C117.890667,16.6116402 120.844467,19.636 124.874667,19.636 C128.904507,19.636 131.858667,16.6116402 131.858667,12.4 C131.858667,8.18872015 128.904507,5.164 124.874667,5.164 Z M159.996093,9.7 L163.100013,9.7 L163.100013,25 L141.927333,25 L141.927333,-0.2 L159.996093,-0.2 L159.996093,9.7 Z M148.047333,5.632 L148.047333,9.7 L154.056093,9.7 L154.056093,5.632 L148.047333,5.632 Z M148.047333,14.884 L148.047333,19.168 L156.980013,19.168 L156.980013,14.884 L148.047333,14.884 Z M173.812,19.168 L173.812,-0.2 L167.692,-0.2 L167.692,25 L184.21348,25 L184.21348,19.168 L173.812,19.168 Z M193.672667,25 L193.672667,-0.2 L187.552667,-0.2 L187.552667,25 L193.672667,25 Z M214.660493,15.3786402 L205.385093,-0.200359802 L198.449333,-0.200359802 L198.449333,24.9996402 L204.569333,24.9996402 L204.569333,14.4473204 L204.113934,9.40984064 L213.394373,24.9996407 L220.326173,25.0000005 L220.326173,-0.199999451 L214.206173,-0.199999451 L214.206173,10.3523204 L214.660493,15.3786402 Z" id="Oddgoblin"></path>
        </g>
    </g>
</svg>