<svg id="Layer_1" data-name="Layer 1" xmlns="http://www.w3.org/2000/svg" viewBox="0 0 743.47 231.19"><defs><style>.cls-1{fill:#fff;}.cls-2{fill:#faed24;}</style></defs><title>title</title><path class="cls-1" d="M733.19,325.29c-.21-.66-.41-1.28-.62-1.86a13.35,13.35,0,0,1-.54-2.14,24.24,24.24,0,0,1-.31-3.28q-.08-2-.08-5v-15.7q0-7-2.62-9.85t-8.47-2.85h-5.85v40.67H697.76v-99.9h25.57q13.24,0,19.17,5.71t5.93,17.27v7.85q0,15.41-11.09,20.27,6.47,2.43,8.86,7.92a33.43,33.43,0,0,1,2.39,13.34v15.41a59.4,59.4,0,0,0,.31,6.49,19.58,19.58,0,0,0,1.54,5.64Zm-18.48-85.63v30.68h6.62q4.77,0,7.47-2.28t2.7-8.28v-9.85q0-5.42-2.08-7.85t-6.55-2.43Z" transform="translate(-697.26 -224.25)"/><path class="cls-1" d="M776.62,267.49h23.26v14.27H776.62V311h29.26v14.27h-46.2v-99.9h46.2v14.27H776.62Z" transform="translate(-697.26 -224.25)"/><path class="cls-1" d="M841.92,306.88l12.94-81.49h15.56l-16.63,99.9H828.52l-16.63-99.9H829Z" transform="translate(-697.26 -224.25)"/><path class="cls-1" d="M876.73,249.37q0-12.13,6.62-18.62t19.1-6.49q12.48,0,19.1,6.49t6.62,18.62v51.95q0,12.13-6.62,18.62t-19.1,6.49q-12.48,0-19.1-6.49t-6.62-18.62Zm16.94,52.95q0,5.43,2.39,7.63a10.34,10.34,0,0,0,12.78,0q2.39-2.21,2.39-7.63V248.37q0-5.42-2.39-7.63a10.34,10.34,0,0,0-12.78,0q-2.39,2.21-2.39,7.63Z" transform="translate(-697.26 -224.25)"/><path class="cls-1" d="M939.1,225.39H956V311h27.88v14.27H939.1Z" transform="translate(-697.26 -224.25)"/><path class="cls-1" d="M1007.48,225.39v77.06q0,5.43,2.39,7.56a10.61,10.61,0,0,0,12.78,0q2.39-2.14,2.39-7.56V225.39h16v76.07q0,12.13-6.39,18.62t-18.87,6.49q-12.48,0-18.87-6.49t-6.39-18.62V225.39Z" transform="translate(-697.26 -224.25)"/><path class="cls-1" d="M1047.68,225.39H1100v14.27h-17.71v85.63h-16.94V239.67h-17.71Z" transform="translate(-697.26 -224.25)"/><path class="cls-1" d="M1107.44,225.39h16.94v99.9h-16.94Z" transform="translate(-697.26 -224.25)"/><path class="cls-1" d="M1135.31,249.37q0-12.13,6.62-18.62t19.1-6.49q12.47,0,19.1,6.49t6.62,18.62v51.95q0,12.13-6.62,18.62t-19.1,6.49q-12.47,0-19.1-6.49t-6.62-18.62Zm16.94,52.95q0,5.43,2.39,7.63a10.34,10.34,0,0,0,12.78,0q2.39-2.21,2.39-7.63V248.37q0-5.42-2.39-7.63a10.34,10.34,0,0,0-12.78,0q-2.39,2.21-2.39,7.63Z" transform="translate(-697.26 -224.25)"/><path class="cls-1" d="M1212.78,252.94v72.35h-15.25v-99.9h21.25l17.4,59.8v-59.8h15.09v99.9h-17.4Z" transform="translate(-697.26 -224.25)"/><path class="cls-1" d="M1318.28,325.29h-17.1l-2.93-18.12h-20.79l-2.93,18.12H1259l17.25-99.9H1301Zm-38.66-31.68h16.33l-8.16-50.52Z" transform="translate(-697.26 -224.25)"/><path class="cls-1" d="M1361.56,325.29c-.21-.66-.41-1.28-.62-1.86a13.22,13.22,0,0,1-.54-2.14,24.36,24.36,0,0,1-.31-3.28q-.08-2-.08-5v-15.7q0-7-2.62-9.85t-8.47-2.85h-5.85v40.67h-16.94v-99.9h25.57q13.24,0,19.17,5.71t5.93,17.27v7.85q0,15.41-11.09,20.27,6.47,2.43,8.86,7.92a33.43,33.43,0,0,1,2.39,13.34v15.41a59.22,59.22,0,0,0,.31,6.49,19.55,19.55,0,0,0,1.54,5.64Zm-18.48-85.63v30.68h6.62q4.77,0,7.47-2.28t2.7-8.28v-9.85q0-5.42-2.08-7.85t-6.55-2.43Z" transform="translate(-697.26 -224.25)"/><path class="cls-1" d="M1402.37,292.18,1381,225.39h17.71l12.94,45.53,12.94-45.53h16.17l-21.41,66.79v33.11h-16.94Z" transform="translate(-697.26 -224.25)"/><path class="cls-2" d="M712.8,396.5h21.34v14.27H712.8V440h26.85V454.3H697.26v-99.9h42.39v14.27H712.8Z" transform="translate(-697.26 -224.25)"/><path class="cls-2" d="M747.27,378.38q0-12.13,5.72-18.62t17.17-6.49q11.45,0,17.17,6.49t5.72,18.62v3.14H778.36v-4.14q0-5.42-2-7.63a8.51,8.51,0,0,0-11.45,0q-2,2.21-2,7.63a17.82,17.82,0,0,0,2.26,9.06,37.57,37.57,0,0,0,5.65,7.42q3.39,3.5,7.28,7a69.76,69.76,0,0,1,7.28,7.63,39,39,0,0,1,5.65,9.42,31.4,31.4,0,0,1,2.26,12.42q0,12.13-5.86,18.62T770,455.45q-11.45,0-17.31-6.49t-5.86-18.62v-6.14h14.69v7.14q0,5.43,2.19,7.56a9.1,9.1,0,0,0,11.73,0q2.19-2.14,2.19-7.56a17.85,17.85,0,0,0-2.26-9.06,37.75,37.75,0,0,0-5.65-7.42q-3.39-3.5-7.28-7a69.07,69.07,0,0,1-7.28-7.64,38.84,38.84,0,0,1-5.65-9.42A31.35,31.35,0,0,1,747.27,378.38Z" transform="translate(-697.26 -224.25)"/><path class="cls-2" d="M825,354.41q11.73,0,17.45,6.28t5.72,18.41v13q0,12.13-5.72,18.41T825,416.77h-7.35V454.3H802.1v-99.9Zm-7.35,14.27V402.5H825a7.6,7.6,0,0,0,5.65-2q2-2,2-7.42v-15q0-5.42-2-7.42a7.61,7.61,0,0,0-5.65-2Z" transform="translate(-697.26 -224.25)"/><path class="cls-2" d="M854.8,378.38q0-12.13,6.08-18.62t17.52-6.49q11.45,0,17.52,6.49T902,378.38v51.95q0,12.13-6.08,18.62t-17.52,6.49q-11.45,0-17.52-6.49t-6.08-18.62Zm15.54,52.95q0,5.43,2.19,7.63a8.88,8.88,0,0,0,11.73,0q2.19-2.21,2.19-7.63V377.38q0-5.42-2.19-7.63a8.88,8.88,0,0,0-11.73,0q-2.19,2.21-2.19,7.63Z" transform="translate(-697.26 -224.25)"/><path class="cls-2" d="M944.52,454.3q-.28-1-.57-1.86a14.39,14.39,0,0,1-.49-2.14,26.34,26.34,0,0,1-.28-3.28q-.07-2-.07-5v-15.7q0-7-2.4-9.85t-7.77-2.85h-5.37V454.3H912v-99.9h23.46q12.15,0,17.59,5.71t5.44,17.27v7.85q0,15.41-10.17,20.27a14,14,0,0,1,8.13,7.92,36.12,36.12,0,0,1,2.19,13.34v15.41a64.8,64.8,0,0,0,.28,6.49,21,21,0,0,0,1.41,5.64Zm-17-85.63v30.68h6.08a9.71,9.71,0,0,0,6.85-2.28q2.47-2.28,2.47-8.28V379q0-5.42-1.91-7.85t-6-2.43Z" transform="translate(-697.26 -224.25)"/><path class="cls-2" d="M964.3,354.41h48v14.27H996.1V454.3H980.55V368.68H964.3Z" transform="translate(-697.26 -224.25)"/><path class="cls-2" d="M1017.15,378.38q0-12.13,5.72-18.62t17.17-6.49q11.45,0,17.17,6.49t5.72,18.62v3.14h-14.69v-4.14q0-5.42-2-7.63a8.51,8.51,0,0,0-11.45,0q-2,2.21-2,7.63a17.82,17.82,0,0,0,2.26,9.06,37.57,37.57,0,0,0,5.65,7.42q3.39,3.5,7.28,7a69.76,69.76,0,0,1,7.28,7.63,39,39,0,0,1,5.65,9.42,31.4,31.4,0,0,1,2.26,12.42q0,12.13-5.86,18.62t-17.31,6.49q-11.45,0-17.31-6.49t-5.86-18.62v-6.14h14.69v7.14q0,5.43,2.19,7.56a9.1,9.1,0,0,0,11.73,0q2.19-2.14,2.19-7.56a17.85,17.85,0,0,0-2.26-9.06,37.75,37.75,0,0,0-5.65-7.42q-3.39-3.5-7.28-7a69.07,69.07,0,0,1-7.28-7.64,38.84,38.84,0,0,1-5.65-9.42A31.35,31.35,0,0,1,1017.15,378.38Z" transform="translate(-697.26 -224.25)"/><path class="cls-2" d="M1117.33,354.41q12.15,0,17.59,5.71t5.44,17.27v3.57q0,7.71-2.4,12.7a15.34,15.34,0,0,1-7.63,7.42,15.59,15.59,0,0,1,9,7.92,31.25,31.25,0,0,1,2.61,13.49v8.13q0,11.56-5.93,17.63t-17.66,6.07h-24.44v-99.9Zm-7.91,14.27v26.4h6.08a9.72,9.72,0,0,0,6.85-2.28q2.47-2.28,2.47-8.28V379q0-5.42-1.91-7.85t-6-2.43Zm0,40.67V440h8.9a7.93,7.93,0,0,0,6-2.14q2-2.14,2-7.71v-8.71q0-7-2.33-9.56t-7.7-2.57Z" transform="translate(-697.26 -224.25)"/><path class="cls-2" d="M1166.78,396.5h21.34v14.27h-21.34V440h26.85V454.3h-42.39v-99.9h42.39v14.27h-26.85Z" transform="translate(-697.26 -224.25)"/><path class="cls-2" d="M1198.71,354.41h48v14.27h-16.25V454.3H1215V368.68h-16.25Z" transform="translate(-697.26 -224.25)"/><path class="cls-2" d="M1249,354.41h48v14.27h-16.25V454.3h-15.54V368.68H1249Z" transform="translate(-697.26 -224.25)"/><path class="cls-2" d="M1303.84,354.41h15.54v99.9h-15.54Z" transform="translate(-697.26 -224.25)"/><path class="cls-2" d="M1344.53,381.95V454.3h-14v-99.9H1350l16,59.79V354.41h13.85v99.9h-16Z" transform="translate(-697.26 -224.25)"/><path class="cls-2" d="M1414.33,398.65h21.76v31.68q0,12.13-5.86,18.62t-17.31,6.49q-11.45,0-17.31-6.49t-5.86-18.62V378.38q0-12.13,5.86-18.62t17.31-6.49q11.45,0,17.31,6.49t5.86,18.62v9.7h-14.69v-10.7q0-5.42-2.19-7.63a8.88,8.88,0,0,0-11.73,0q-2.19,2.21-2.19,7.63v53.95q0,5.43,2.19,7.56a9.1,9.1,0,0,0,11.73,0q2.19-2.14,2.19-7.56V412.92h-7.06Z" transform="translate(-697.26 -224.25)"/></svg>